<?xml version="1.0" standalone="no"?>
<!DOCTYPE svg PUBLIC "-//W3C//DTD SVG 20010904//EN"
 "http://www.w3.org/TR/2001/REC-SVG-20010904/DTD/svg10.dtd">
<svg version="1.0" xmlns="http://www.w3.org/2000/svg"
 width="512.000000pt" height="512.000000pt" viewBox="0 0 512.000000 512.000000"
 preserveAspectRatio="xMidYMid meet">
<metadata>
Created by potrace 1.11, written by Peter Selinger 2001-2013
</metadata>
<g transform="translate(0.000000,512.000000) scale(0.100000,-0.100000)"
fill="#000000" stroke="none">
<path d="M1995 4890 c-104 -21 -154 -38 -365 -123 -96 -38 -206 -80 -245 -94
-264 -92 -450 -77 -624 51 -27 20 -60 36 -74 36 -58 0 -92 -69 -56 -114 40
-51 208 -143 294 -161 79 -16 186 -19 270 -8 119 17 214 47 479 153 323 128
454 155 605 124 86 -18 150 -51 262 -134 212 -157 408 -187 711 -106 39 11
318 117 383 146 38 16 157 62 174 65 9 2 48 11 86 20 75 18 193 24 261 13 48
-8 184 -67 184 -79 0 -7 -616 -719 -640 -739 -3 -3 -30 -34 -60 -70 -30 -36
-58 -67 -61 -70 -3 -3 -39 -43 -79 -90 -41 -47 -77 -87 -80 -90 -3 -3 -66 -75
-140 -160 -74 -85 -149 -171 -166 -190 -18 -19 -114 -129 -215 -245 -101 -115
-186 -212 -189 -215 -3 -3 -34 -39 -70 -80 -35 -41 -68 -78 -73 -81 -5 -3 -47
14 -95 38 -148 74 -302 91 -482 51 -113 -24 -154 -38 -360 -120 -230 -93 -327
-125 -428 -144 -155 -29 -288 -1 -421 87 -80 53 -107 59 -142 31 -37 -31 -31
-79 17 -120 109 -95 277 -154 429 -153 154 2 267 32 565 151 303 121 411 149
548 144 80 -3 195 -38 240 -72 l22 -17 -196 -225 c-108 -124 -220 -251 -248
-284 -28 -32 -56 -64 -62 -70 -5 -6 -43 -49 -84 -96 -41 -47 -77 -87 -80 -90
-3 -3 -34 -39 -70 -80 -77 -89 -82 -94 -245 -280 -147 -167 -159 -181 -240
-275 -33 -39 -67 -77 -75 -85 -8 -8 -42 -46 -75 -85 -33 -38 -62 -72 -65 -75
-3 -3 -69 -77 -145 -165 -77 -88 -142 -162 -145 -165 -3 -3 -32 -35 -63 -72
-45 -55 -55 -72 -51 -95 6 -39 73 -95 169 -143 105 -51 196 -71 316 -69 134 2
267 38 544 146 228 90 307 118 355 127 14 3 36 8 50 11 67 16 170 12 266 -9
44 -9 137 -59 197 -105 103 -79 192 -128 267 -147 8 -2 33 -8 55 -13 22 -6 96
-9 165 -7 154 5 233 26 542 149 325 129 468 161 609 135 65 -12 165 -56 227
-101 63 -46 87 -50 118 -24 57 50 33 101 -79 171 -114 71 -210 99 -342 100
-199 2 -241 -9 -620 -159 -262 -104 -335 -125 -462 -130 -144 -5 -242 30 -387
137 -159 118 -281 160 -451 154 -106 -4 -137 -8 -207 -26 -24 -7 -50 -14 -58
-16 -36 -8 -137 -46 -281 -104 -142 -58 -242 -95 -279 -106 -145 -39 -253 -50
-340 -33 -60 12 -190 67 -190 81 0 8 15 26 88 106 12 14 41 48 65 75 23 28 47
55 53 61 5 6 43 49 84 96 41 47 77 87 80 90 3 3 32 37 65 75 33 39 74 86 91
105 17 19 53 60 80 91 116 132 170 192 179 203 6 6 59 67 119 136 59 69 122
141 140 160 17 19 92 105 166 190 74 85 144 164 155 175 11 11 37 41 57 65 20
25 47 57 60 71 13 14 50 57 83 95 33 37 69 78 80 89 11 12 33 37 49 56 16 18
41 49 57 67 l29 32 37 -23 c53 -33 158 -74 223 -86 56 -10 220 -8 275 4 104
21 219 61 407 141 368 156 502 185 668 143 67 -17 173 -71 208 -106 56 -55
147 1 121 74 -19 56 -191 152 -320 179 -186 39 -342 7 -699 -142 -206 -85
-285 -115 -378 -139 -125 -32 -258 -23 -370 25 -88 38 -96 19 113 255 34 39
111 126 171 195 59 69 111 127 114 130 3 3 34 39 70 80 36 41 70 80 75 86 13
14 88 100 275 314 84 96 179 204 210 240 32 36 75 85 97 109 21 25 103 119
183 210 125 144 164 188 215 245 6 6 26 29 45 52 70 80 165 188 181 204 27 28
31 75 8 104 -31 39 -156 112 -244 142 -107 36 -262 40 -420 9 -52 -10 -203
-65 -394 -142 -240 -96 -333 -122 -457 -128 -137 -5 -244 30 -364 121 -79 60
-166 114 -183 114 -7 0 -17 4 -23 10 -5 5 -44 18 -87 29 -96 24 -231 25 -342
1z"/>
</g>
</svg>
